<svg xmlns="http://www.w3.org/2000/svg" xmlns:xlink="http://www.w3.org/1999/xlink" viewBox="0,0,256,256" width="128px" height="128px" fill-rule="nonzero"><g fill="#ffffff" fill-rule="nonzero" stroke="none" stroke-width="1" stroke-linecap="butt" stroke-linejoin="miter" stroke-miterlimit="10" stroke-dasharray="" stroke-dashoffset="0" font-family="none" font-weight="none" font-size="none" text-anchor="none" style="mix-blend-mode: normal"><g transform="scale(2,2)"><path d="M83.57,73.88c0.12,-8.22 -8.35,-14 -19.28,-15.14c-6.42,-0.65 -9.91,-2.48 -9.91,-6.72c0,-4.05 4.12,-7.06 8.71,-6.81c8.34,0.47 9.55,5.63 9.55,8.78c0,0 9.08,0.1 9.08,0c0,-7.67 -4.42,-14.42 -13.45,-16.41v-9.08h-9v8.76c-9.33,1.48 -14.5,9 -14.59,15.4c-0.13,8.47 6.95,13.18 18.7,14.88c7.3,1 10.55,3.79 10.48,7.49c-0.06,4 -2.67,7.83 -10.19,7.83c-7.14,0 -10.07,-4.41 -10.07,-9.06h-9.8c0,8.34 4.46,14.46 15.42,15.88v8.74h9v-8.65c12.72,-1.61 15.27,-11.17 15.35,-15.89z"></path><path d="M20.41,64c0.00047,-18.72494 11.9597,-35.35757 29.71,-41.32v-9.59c-22.95712,6.26207 -38.88314,27.11414 -38.88314,50.91c0,23.79586 15.92602,44.64793 38.88314,50.91v-9.59c-17.7503,-5.96243 -29.70953,-22.59506 -29.71,-41.32z"></path><path d="M77.37,12.94v9.56c18.00669,5.81457 30.20918,22.57779 30.20918,41.5c0,18.92221 -12.20248,35.68543 -30.20918,41.5v9.56c23.20655,-6.09195 39.38625,-27.06717 39.38625,-51.06c0,-23.99283 -16.1797,-44.96805 -39.38625,-51.06z"></path></g></g></svg>