<svg xmlns="http://www.w3.org/2000/svg"  viewBox="0 0 24 24" width="96px" height="96px"><polygon fill="#3292C8" points="12.6,10.717 12.6,10.724 12.6,10.727"/><path fill="#3292C8" d="M1.54,9.839L0,9.987l0.71,4.164h1.75c0.77-1.007,1.72-2.428,1.72-3.523c0-0.345-0.07-0.612-0.24-0.878	l-1.4,0.276c0.09,0.187,0.15,0.414,0.15,0.74c0,0.602-0.43,1.48-0.78,2.033L1.54,9.839z"/><path fill="#3292C8" d="M8.16,10.934c0-0.681-0.5-1.164-1.38-1.164c-1.6,0-2.38,1.372-2.38,2.664c0,1.007,0.48,1.796,1.81,1.796	c0.53,0,1.07-0.109,1.42-0.276l0.19-1.243c-0.5,0.247-0.87,0.345-1.27,0.345c-0.367,0-0.635-0.196-0.639-0.681	C6.732,12.365,8.16,12.019,8.16,10.934z M5.94,11.576c0.04-0.474,0.41-0.819,0.7-0.819c0.16,0,0.3,0.099,0.3,0.296	C6.94,11.447,6.22,11.576,5.94,11.576z"/><path fill="#3292C8" d="M10.59,14.151h1.5l0.46-2.881c0.02-0.156,0.049-0.379,0.05-0.546c-0.001-0.571-0.271-0.964-1.03-0.964	c-0.57,0-0.98,0.227-1.29,0.424l-0.02-0.345h-1.3l-0.68,4.313h1.5l0.48-3.029c0.12-0.059,0.32-0.148,0.52-0.148	c0.14,0,0.26,0.04,0.26,0.237l-0.03,0.296L10.59,14.151z"/><path fill="#3292C8" d="M18.45,9.76c-0.57,0-0.97,0.178-1.4,0.474c-0.16-0.276-0.46-0.474-0.94-0.474c-0.54,0-0.94,0.217-1.24,0.434	l-0.05-0.355h-1.28l-0.69,4.303h1.51l0.47-3.02c0.13-0.059,0.32-0.148,0.52-0.148c0.15,0,0.27,0.049,0.27,0.266l-0.02,0.207	l-0.43,2.704h1.5l0.48-3.029c0.13-0.069,0.32-0.148,0.5-0.148c0.15,0,0.27,0.049,0.27,0.266l-0.02,0.217l-0.43,2.694h1.5	l0.458-2.868c0.03-0.179,0.048-0.364,0.052-0.556C19.48,10.155,19.21,9.76,18.45,9.76z"/><polygon fill="#3292C8" points="19.43,11.27 19.428,11.283 19.427,11.292"/><path fill="#3292C8" d="M22.27,9.76c-1.67,0-2.41,1.273-2.41,2.635c0,1.036,0.43,1.855,1.7,1.855c1.72,0,2.44-1.392,2.44-2.734	C24,10.5,23.54,9.76,22.27,9.76z M21.77,13.105c-0.27,0-0.38-0.247-0.38-0.651c0-0.523,0.12-1.559,0.72-1.559	c0.26,0,0.35,0.247,0.35,0.592C22.46,12.02,22.33,13.105,21.77,13.105z"/></svg>